<?xml version="1.0" encoding="UTF-8"?>
<svg width="50px" height="37px" viewBox="0 0 50 37" version="1.1" xmlns="http://www.w3.org/2000/svg" xmlns:xlink="http://www.w3.org/1999/xlink">
    <g id="camera" stroke="none" stroke-width="1" fill="none" fill-rule="evenodd">
        <path d="M11.861446,6 L12.5072387,4.08379568 C13.3296965,1.64338847 15.6177529,2.24942657e-15 18.1930246,1.77635684e-15 L31.3484719,1.77635684e-15 C34.0317299,1.28345034e-15 36.3887753,1.78156249 37.1208467,4.36302428 L37.5850732,6 L45,6 C47.7614237,6 50,8.23857625 50,11 L50,32 C50,34.7614237 47.7614237,37 45,37 L5,37 C2.23857625,37 3.38176876e-16,34.7614237 0,32 L0,11 C-3.38176876e-16,8.23857625 2.23857625,6 5,6 L11.861446,6 Z M25.5,31 C30.7467051,31 35,26.7467051 35,21.5 C35,16.2532949 30.7467051,12 25.5,12 C20.2532949,12 16,16.2532949 16,21.5 C16,26.7467051 20.2532949,31 25.5,31 Z M41,14 C42.1045695,14 43,13.1045695 43,12 C43,10.8954305 42.1045695,10 41,10 C39.8954305,10 39,10.8954305 39,12 C39,13.1045695 39.8954305,14 41,14 Z" fill="#094CB7"></path>
    </g>
</svg>