<?xml version="1.0" encoding="UTF-8"?>
<svg width="50px" height="50px" viewBox="0 0 50 50" version="1.1" xmlns="http://www.w3.org/2000/svg" xmlns:xlink="http://www.w3.org/1999/xlink">
    <title>compost2</title>
    <g id="compost2" stroke="none" stroke-width="1" fill="none" fill-rule="evenodd">
        <path d="M25,50 C11.1928813,50 0,38.8071187 0,25 C0,11.1928813 11.1928813,0 25,0 C38.8071187,0 50,11.1928813 50,25 C50,38.8071187 38.8071187,50 25,50 Z M8.74964508,10 L8,11.0434591 L14.340787,16.5694528 C21.1769378,23.7448626 27.9864804,29.7104135 34.7694146,34.4661055 C28.3212912,32.0845266 21.0258389,26.523882 12.8830578,17.7841716 C13.8548773,24.6951724 16.0472277,29.6020569 19.4601092,32.5048252 C24.5794314,36.8589776 34.4179813,39.7835525 41.4921547,36.9726222 C34.4179813,27.3608075 34.9616207,23.2004652 29.7869844,18.7463938 C24.6123482,14.2923224 15.7960698,15.4619112 15.2306908,15.4619112 C14.8537714,15.4619112 12.6934228,13.6412742 8.74964508,10 Z" fill="#309615"></path>
    </g>
</svg>