<?xml version="1.0" encoding="UTF-8"?>
<svg width="47px" height="46px" viewBox="0 0 47 46" version="1.1" xmlns="http://www.w3.org/2000/svg" xmlns:xlink="http://www.w3.org/1999/xlink">
    <g id="symbols" stroke="none" stroke-width="1" fill="none" fill-rule="evenodd">
        <g id="gear">
            <g id="Group">
                <circle id="Oval" stroke="#5B5B5B" stroke-width="8" cx="23.5" cy="23.5" r="14.5"></circle>
                <rect id="Rectangle" fill="#5B5B5B" x="38" y="18" width="8.61243897" height="10.5459461" rx="2"></rect>
                <rect id="Rectangle" fill="#5B5B5B" x="18" y="38" width="10.4714508" height="8.673709" rx="2"></rect>
                <rect id="Rectangle" fill="#5B5B5B" x="0" y="18" width="8.61243897" height="10.5459461" rx="2"></rect>
                <rect id="Rectangle" fill="#5B5B5B" x="18" y="0" width="10.4714508" height="8.673709" rx="2"></rect>
                <path d="M34.6706967,42.1610347 L31.3992377,38.8663021 C30.6248608,38.0864161 30.6248608,36.8278039 31.3992377,36.0479179 L35.9852166,31.4293138 C36.7634919,30.6455017 38.0298139,30.6410133 38.813626,31.4192886 C38.8169795,31.4226185 38.8203213,31.4259602 38.8236511,31.4293138 L42.0951101,34.7240464 C42.8694871,35.5039324 42.8694871,36.7625445 42.0951101,37.5424305 L37.5091313,42.1610347 C36.730856,42.9448467 35.464534,42.9493352 34.6807219,42.1710599 C34.6773684,42.16773 34.6740266,42.1643882 34.6706967,42.1610347 Z" id="Rectangle" fill="#5B5B5B"></path>
                <path d="M7.67069673,15.1610347 L4.39923773,11.8663021 C3.62486075,11.0864161 3.62486075,9.82780389 4.39923773,9.0479179 L8.9852166,4.42931377 C9.7634919,3.64550171 11.0298139,3.64101329 11.813626,4.41928859 C11.8169795,4.42261846 11.8203213,4.42596021 11.8236511,4.42931377 L15.0951101,7.72404637 C15.8694871,8.50393236 15.8694871,9.76254455 15.0951101,10.5424305 L10.5091313,15.1610347 C9.73085597,15.9448467 8.46453397,15.9493352 7.68072191,15.1710599 C7.67736835,15.16773 7.6740266,15.1643882 7.67069673,15.1610347 Z" id="Rectangle" fill="#5B5B5B"></path>
                <path d="M31.3992377,7.72404637 L34.6706967,4.42931377 C35.448972,3.64550171 36.715294,3.64101329 37.4991061,4.41928859 C37.5024597,4.42261846 37.5058014,4.42596021 37.5091313,4.42931377 L42.0951101,9.0479179 C42.8694871,9.82780389 42.8694871,11.0864161 42.0951101,11.8663021 L38.8236511,15.1610347 C38.0453758,15.9448467 36.7790538,15.9493352 35.9952418,15.1710599 C35.9918882,15.16773 35.9885465,15.1643882 35.9852166,15.1610347 L31.3992377,10.5424305 C30.6248608,9.76254455 30.6248608,8.50393236 31.3992377,7.72404637 Z" id="Rectangle" fill="#5B5B5B"></path>
                <path d="M4.39923773,34.7240464 L7.67069673,31.4293138 C8.44897203,30.6455017 9.71529404,30.6410133 10.4991061,31.4192886 C10.5024597,31.4226185 10.5058014,31.4259602 10.5091313,31.4293138 L15.0951101,36.0479179 C15.8694871,36.8278039 15.8694871,38.0864161 15.0951101,38.8663021 L11.8236511,42.1610347 C11.0453758,42.9448467 9.77905383,42.9493352 8.99524177,42.1710599 C8.99188821,42.16773 8.98854647,42.1643882 8.9852166,42.1610347 L4.39923773,37.5424305 C3.62486075,36.7625445 3.62486075,35.5039324 4.39923773,34.7240464 Z" id="Rectangle" fill="#5B5B5B"></path>
            </g>
        </g>
    </g>
</svg>