<?xml version="1.0" encoding="UTF-8"?>
<svg width="50px" height="50px" viewBox="0 0 50 50" version="1.1" xmlns="http://www.w3.org/2000/svg" xmlns:xlink="http://www.w3.org/1999/xlink">
    <path d="M34,21.2986142 L44.3587401,15 L49,24.1056044 C42.7436901,40.396594 42.0166156,35.1669678 39.0448414,30.6096089 L34,21.2986142 Z" fill="#094CB7"></path>
    <path d="M30.449543,28 L25,38.427082 L30.449543,49 L30.5840952,44.7708344 L35.5626907,44.7708344 C37.3792049,44.9409677 39.7339429,43.6527752 40.608562,41.7812516 L47,29.0937547 C44.8919488,31.3541703 42.1812913,31.9375007 39.0611595,31.9375007 L30.6513788,31.9375007 L30.449543,28 Z" id="path2743" fill="#094CB7"></path>
    <path d="M18.7275244,16 L8,10.1345501 L13.723063,1.994505 C20.9565895,-0.939087504 26.9025629,3.14187346 24.4305845,7.42311748 L18.7275244,16 Z" id="path2751" fill="#094CB7"></path>
    <path d="M25.1238474,15.90621 L36.1384,16 L42,6.59525502 L38.5362695,8.35391362 L36.1289166,4.0446121 C35.387282,2.39686609 33.2134451,0.92984298 31.286526,1.00259637 L18,1.09575394 C20.8358579,1.91819075 22.6153502,4.00580659 24.1240601,6.7064856 L28.190531,13.9857034 L25.1238474,15.90621 Z" id="path2752" fill="#094CB7"></path>
    <path d="M0,15.0978778 L3.22905002,17.6427173 L0.189942804,23.51541 C2.21601428,29.5116713 3.66732456,33.0962753 4.54387363,34.2692221 C6.19332704,34.9667134 7.84443816,33.7964405 9.49720701,30.7584033 L13.7709499,23.7111649 L17,25.4729767 L11.3966498,15 L0,15.0978778 Z" id="path2753" fill="#094CB7"></path>
    <path d="M3.10913874,31.4613745 L8.57991548,41.9235497 C10.0399453,43.5895208 13.4811519,44.054747 16.3348445,43.9941644 L24,43.9941644 L24,32.6352659 L9.46606238,32.5443952 C7.20965079,32.6655534 5.36555046,33.7028631 3.10913874,31.4613745 Z" id="path2754" fill="#094CB7"></path>
</svg>