<?xml version="1.0" encoding="UTF-8"?>
<svg width="40px" height="47px" viewBox="0 0 40 47" version="1.1" xmlns="http://www.w3.org/2000/svg" xmlns:xlink="http://www.w3.org/1999/xlink">
    <defs>
        <path d="M12.0189161,26.4646185 C12.2107293,26.2587833 12.4006322,25.9852512 12.5865924,25.6301353 L15.1005588,21.3234897 L17,22.4001524 L13.7039117,16 L7,16.0598142 L8.89944119,17.6149939 L7.11173106,21.2038617 C7.00454935,22.9415261 7.44733901,24.9021593 8.34725259,25.5542857 L12.294118,31.8542853 C13.1568629,32.8062688 14.784317,33.031284 16.4705899,32.9966654 L21,32.9966654 L21,26.5058662 L12.4117641,26.4539401 C12.2843361,26.4605568 12.1531471,26.4643278 12.0189161,26.4646185 Z M18.9736416,8.0504307 C17.9265075,7.91047084 16.6827446,8.05222047 15.3665077,8.596703 L12,13.48073 L18.3103085,17 L21.6650497,11.8538705 C21.6897475,11.8102406 21.7130169,11.7666453 21.7348782,11.7231048 L23.9444764,15.791422 L22.1555777,16.943726 L28.5807333,17 L32,11.357153 L29.9794905,12.4123482 L28.5752013,9.82676726 C28.1425812,8.83811965 26.8745096,7.95790579 25.7504735,8.00155782 L18.9736416,8.0504307 Z M34.3215286,25.92742 C35.0868883,25.0401781 35.7120639,23.5950644 36,21.564536 L33.215244,16 L27,19.8491531 L30.0269048,25.5392054 C30.2023825,25.8132924 30.3934392,26.0494696 30.59607,26.2471772 C30.501008,26.2490891 30.4052683,26.2500004 30.308867,26.2500004 L25.3394511,26.2500004 L25.2201845,24 L22,29.9583326 L25.2201845,36 L25.2996926,33.5833339 L28.24159,33.5833339 C29.3149847,33.680553 30.7064208,32.944443 31.2232412,31.8750009 L34.3215286,25.92742 Z M4,0 L39,0 L39,43 L4,43 L4,0 Z" id="path-1"></path>
    </defs>
    <g id="book_recycle" stroke="none" stroke-width="1" fill="none" fill-rule="evenodd">
        <polygon id="Rectangle-2" fill="#309615" points="2.13162821e-14 4.36964297 3 0 3 42.4920758 2.13162821e-14 46.8617187"></polygon>
        <polygon id="Rectangle-2" fill="#309615" transform="translate(20.069141, 45.361719) scale(-1, 1) rotate(90.000000) translate(-20.069141, -45.361719) " points="18.5691406 28.5004495 21.5691406 26.2925781 21.5691406 62.222988 18.5691406 64.4308594"></polygon>
        <mask id="mask-2" fill="white">
            <use xlink:href="#path-1"></use>
        </mask>
        <use id="Combined-Shape" fill="#309615" xlink:href="#path-1"></use>
    </g>
</svg>